<?xml version="1.0" encoding="UTF-8"?>
<!-- Created with Inkscape (http://www.inkscape.org/) -->
<svg width="500" height="500" version="1.1" viewBox="0 0 132.29 132.29" xmlns="http://www.w3.org/2000/svg">
 <defs>
  <mask id="mask-powermask-path-effect2784" maskUnits="userSpaceOnUse">
   <path id="mask-powermask-path-effect2784_box" d="m-0.99999-0.99999h134.29v134.29h-134.29z" fill="#fff"/>
   <g>
    <circle cx="53.578" cy="62.022" r="2.8009" d="m 56.378992,62.022053 a 2.8008671,2.8008671 0 0 1 -2.800867,2.800867 2.8008671,2.8008671 0 0 1 -2.800867,-2.800867 2.8008671,2.8008671 0 0 1 2.800867,-2.800867 2.8008671,2.8008671 0 0 1 2.800867,2.800867 z" fill="none" stroke="#000" stroke-linecap="round" stroke-linejoin="round" stroke-width="2.6458" style="paint-order:normal"/>
    <circle cx="78.711" cy="62.022" r="2.8009" d="m 81.512011,62.022053 a 2.8008671,2.8008671 0 0 1 -2.800868,2.800867 2.8008671,2.8008671 0 0 1 -2.800867,-2.800867 2.8008671,2.8008671 0 0 1 2.800867,-2.800867 2.8008671,2.8008671 0 0 1 2.800868,2.800867 z" fill="none" stroke="#000" stroke-linecap="round" stroke-linejoin="round" stroke-width="2.6458" style="paint-order:normal"/>
    <path d="m110.93 66.146h8.1365" fill="none" stroke="#000" stroke-linecap="round" stroke-linejoin="round" stroke-width="2.6458" style="paint-order:stroke markers fill"/>
    <path d="m72.35 66.146 27.063 5e-6" fill="none" stroke="#000" stroke-linecap="round" stroke-linejoin="round" stroke-width="2.6458" style="paint-order:stroke markers fill"/>
    <path d="m32.863 66.146h27.078" fill="none" stroke="#000" stroke-linecap="round" stroke-linejoin="round" stroke-width="2.6458" style="paint-order:stroke markers fill"/>
    <path d="m13.229 66.146 8.1478-3e-6" fill="none" stroke="#000" stroke-linecap="round" stroke-linejoin="round" stroke-width="2.6458" style="paint-order:stroke markers fill"/>
    <path d="m41.011 66.009a25.135 25.135 0 0 1 24.96-24.998 25.135 25.135 0 0 1 25.306 24.648" fill="none" stroke="#000" stroke-linecap="round" stroke-linejoin="round" stroke-width="2.6458" style="paint-order:normal"/>
    <path d="m71.258 59.641c7.4536 33.864-17.679 33.864-10.223 2e-6" fill="none" stroke="#000" stroke-linecap="round" stroke-linejoin="round" stroke-width="2.6458"/>
    <circle cx="27.12" cy="66.009" r="5.7563" d="M 32.876421,66.009224 A 5.756321,5.756321 0 0 1 27.1201,71.765545 5.756321,5.756321 0 0 1 21.363779,66.009224 5.756321,5.756321 0 0 1 27.1201,60.252903 5.756321,5.756321 0 0 1 32.876421,66.009224 Z" fill="none" stroke="#000" stroke-linecap="round" stroke-linejoin="round" stroke-width="2.6458" style="paint-order:normal"/>
    <circle cx="105.17" cy="66.146" r="5.7563" d="m 110.92586,66.145836 a 5.756321,5.756321 0 0 1 -5.75632,5.756321 5.756321,5.756321 0 0 1 -5.756321,-5.756321 5.756321,5.756321 0 0 1 5.756321,-5.756321 5.756321,5.756321 0 0 1 5.75632,5.756321 z" fill="none" stroke="#000" stroke-linecap="round" stroke-linejoin="round" stroke-width="2.6458" style="paint-order:normal"/>
   </g>
  </mask>
 </defs>
 <g>
  <path d="m132.29 66.146a66.146 66.146 0 0 1-66.146 66.146 66.146 66.146 0 0 1-66.146-66.146 66.146 66.146 0 0 1 66.146-66.146 66.146 66.146 0 0 1 66.146 66.146z" mask="url(#mask-powermask-path-effect2784)" stroke-linecap="round" stroke-linejoin="round" stroke-width="2.6458"/>
 </g>
</svg>
